<?xml version="1.0" encoding="utf-8"?>
<!-- Generator: Adobe Illustrator 16.0.0, SVG Export Plug-In . SVG Version: 6.00 Build 0)  -->
<!DOCTYPE svg PUBLIC "-//W3C//DTD SVG 1.1//EN" "http://www.w3.org/Graphics/SVG/1.1/DTD/svg11.dtd" [
	<!ENTITY st0 "opacity:0.25;">
	<!ENTITY st1 "clip-path:url(#SVGID_22_);fill:#518E9B;">
	<!ENTITY st2 "fill:#518E9B;">
	<!ENTITY st3 "clip-path:url(#SVGID_30_);fill:#FFFFFF;">
	<!ENTITY st4 "clip-path:url(#SVGID_24_);fill:#518E9B;">
	<!ENTITY st5 "clip-path:url(#SVGID_2_);">
	<!ENTITY st6 "clip-path:url(#SVGID_6_);">
	<!ENTITY st7 "clip-path:url(#SVGID_26_);fill:#518E9B;">
	<!ENTITY st8 "clip-path:url(#SVGID_22_);fill:#FFFFFF;">
	<!ENTITY st9 "fill:#FFFFFF;">
	<!ENTITY st10 "clip-path:url(#SVGID_12_);fill:#FFFFFF;">
	<!ENTITY st11 "clip-path:url(#SVGID_24_);fill:#FFFFFF;">
	<!ENTITY st12 "clip-path:url(#SVGID_10_);fill-rule:evenodd;clip-rule:evenodd;fill:#01909E;">
	<!ENTITY st13 "clip-path:url(#SVGID_26_);fill:#FFFFFF;">
	<!ENTITY st14 "clip-path:url(#SVGID_14_);">
	<!ENTITY st15 "clip-path:url(#SVGID_18_);">
	<!ENTITY st16 "clip-path:url(#SVGID_28_);fill-rule:evenodd;clip-rule:evenodd;fill:#01909E;">
]>
<svg version="1.1" id="Layer_1" xmlns="http://www.w3.org/2000/svg" xmlns:xlink="http://www.w3.org/1999/xlink" x="0px" y="0px"
	 width="397.779px" height="397.769px" viewBox="0 0 397.779 397.769" style="enable-background:new 0 0 397.779 397.769;"
	 xml:space="preserve">
<g>
	<path style="&st2;" d="M397.779,198.879c0,109.843-89.047,198.89-198.896,198.89C89.047,397.769,0,308.722,0,198.879
		C0,89.042,89.047,0,198.884,0C308.732,0,397.779,89.042,397.779,198.879"/>
	<path style="&st9;" d="M292.805,109.987c-16.823-14.72-41.727-14.202-57.969,1.223l-16.87,16.238
		c-5.843,5.609-12.338,10.411-19.278,14.398v27.063c0,4.672-3.791,8.458-8.458,8.458s-8.458-3.786-8.458-8.458v-19.299
		c-5.485,1.9-11.146,3.31-16.917,4.227v20.718c0,4.667-3.786,8.464-8.458,8.464c-4.667,0-8.458-3.797-8.458-8.464v-19.153
		l-31.616,2.258c-4.423,0.321-7.853,3.988-7.853,8.438v19.734c0,2.968,1.555,5.729,4.103,7.246
		c4.045,2.424,6.521,6.526,6.806,11.219c0.29,4.708-1.688,9.064-5.402,11.965l-24.794,19.289c-3.107,2.408-4.134,6.645-2.476,10.214
		l20.661,44.699c7.577,16.217,12.561,25.955,26.855,37.324c4.962,3.926,11.271,6.008,18.118,6.008c1.326,0,2.683-0.078,4.056-0.238
		c9.096-1.077,17.714-5.65,23.184-12.327c6.029-5.822,31.145-30.87,34.252-46.906c1.492-7.635,5.926-14.813,9.199-17.107
		c0.218-0.141,0.436-0.327,0.637-0.503c1.663-1.409,40.815-35.07,55.489-57.809l22.53-34.978
		C311.984,146.183,308.25,123.496,292.805,109.987 M287.258,155.102l-22.329,34.651c-12.736,19.76-48.527,50.879-51.987,53.898
		c-8.37,6.08-13.912,18.128-15.725,27.472c-1.596,8.23-18.367,27.364-29.762,38.298c-0.28,0.28-0.55,0.575-0.787,0.891
		c-2.693,3.408-7.381,5.874-12.255,6.443c-3.844,0.445-7.304-0.331-9.676-2.206c-3.408-2.725-6.091-5.283-8.401-7.898
		c1.357-0.425,2.646-1.155,3.693-2.264c59.337-63.755,128.737-139.107,150.253-165.756
		C291.111,144.22,290.179,150.062,287.258,155.102"/>
</g>
</svg>
