<?xml version="1.0" encoding="utf-8"?>
<!-- Generator: Adobe Illustrator 16.0.0, SVG Export Plug-In . SVG Version: 6.00 Build 0)  -->
<!DOCTYPE svg PUBLIC "-//W3C//DTD SVG 1.1//EN" "http://www.w3.org/Graphics/SVG/1.1/DTD/svg11.dtd" [
	<!ENTITY st0 "opacity:0.25;">
	<!ENTITY st1 "clip-path:url(#SVGID_22_);fill:#518E9B;">
	<!ENTITY st2 "fill:#518E9B;">
	<!ENTITY st3 "clip-path:url(#SVGID_30_);fill:#FFFFFF;">
	<!ENTITY st4 "clip-path:url(#SVGID_24_);fill:#518E9B;">
	<!ENTITY st5 "clip-path:url(#SVGID_2_);">
	<!ENTITY st6 "clip-path:url(#SVGID_6_);">
	<!ENTITY st7 "clip-path:url(#SVGID_26_);fill:#518E9B;">
	<!ENTITY st8 "clip-path:url(#SVGID_22_);fill:#FFFFFF;">
	<!ENTITY st9 "fill:#FFFFFF;">
	<!ENTITY st10 "clip-path:url(#SVGID_12_);fill:#FFFFFF;">
	<!ENTITY st11 "clip-path:url(#SVGID_24_);fill:#FFFFFF;">
	<!ENTITY st12 "clip-path:url(#SVGID_10_);fill-rule:evenodd;clip-rule:evenodd;fill:#01909E;">
	<!ENTITY st13 "clip-path:url(#SVGID_26_);fill:#FFFFFF;">
	<!ENTITY st14 "clip-path:url(#SVGID_14_);">
	<!ENTITY st15 "clip-path:url(#SVGID_18_);">
	<!ENTITY st16 "clip-path:url(#SVGID_28_);fill-rule:evenodd;clip-rule:evenodd;fill:#01909E;">
]>
<svg version="1.1" id="Layer_1" xmlns="http://www.w3.org/2000/svg" xmlns:xlink="http://www.w3.org/1999/xlink" x="0px" y="0px"
	 width="397.777px" height="397.769px" viewBox="0 0 397.777 397.769" style="enable-background:new 0 0 397.777 397.769;"
	 xml:space="preserve">
<g>
	<defs>
		<rect id="SVGID_25_" x="0.02" width="397.732" height="397.769"/>
	</defs>
	<clipPath id="SVGID_2_">
		<use xlink:href="#SVGID_25_"  style="overflow:visible;"/>
	</clipPath>
	<path style="clip-path:url(#SVGID_2_);fill:#518E9B;" d="M397.777,198.879c0,109.843-89.035,198.89-198.883,198.89
		S0,308.722,0,198.879C0,89.042,89.047,0,198.895,0S397.777,89.042,397.777,198.879"/>
	<path style="clip-path:url(#SVGID_2_);fill:#FFFFFF;" d="M170.412,151.393l-17.693,5.346c0,0,6.52,28.399,18.154,58.892
		c11.643,30.492,33.521,55.866,33.521,55.866l14.43-7.914l44.922,79.838l-12.332,6.516c-42.363-1.627-79.842-63.076-79.842-63.076
		s-43.99-64.248-56.328-138.729c-12.338-74.492,25.836-84.033,25.836-84.033L170.412,151.393z M176.461,52.226l-29.094,9.779
		l29.326,87.052l29.328-9.773L176.461,52.226z M251.648,245.423l-27.002,14.896l44.457,80.536l27-14.891L251.648,245.423z"/>
</g>
</svg>
