<?xml version="1.0" encoding="utf-8"?>
<!-- Generator: Adobe Illustrator 16.0.0, SVG Export Plug-In . SVG Version: 6.00 Build 0)  -->
<!DOCTYPE svg PUBLIC "-//W3C//DTD SVG 1.1//EN" "http://www.w3.org/Graphics/SVG/1.1/DTD/svg11.dtd" [
	<!ENTITY st0 "opacity:0.25;">
	<!ENTITY st1 "clip-path:url(#SVGID_22_);fill:#518E9B;">
	<!ENTITY st2 "fill:#518E9B;">
	<!ENTITY st3 "clip-path:url(#SVGID_30_);fill:#FFFFFF;">
	<!ENTITY st4 "clip-path:url(#SVGID_24_);fill:#518E9B;">
	<!ENTITY st5 "clip-path:url(#SVGID_2_);">
	<!ENTITY st6 "clip-path:url(#SVGID_6_);">
	<!ENTITY st7 "clip-path:url(#SVGID_26_);fill:#518E9B;">
	<!ENTITY st8 "clip-path:url(#SVGID_22_);fill:#FFFFFF;">
	<!ENTITY st9 "fill:#FFFFFF;">
	<!ENTITY st10 "clip-path:url(#SVGID_12_);fill:#FFFFFF;">
	<!ENTITY st11 "clip-path:url(#SVGID_24_);fill:#FFFFFF;">
	<!ENTITY st12 "clip-path:url(#SVGID_10_);fill-rule:evenodd;clip-rule:evenodd;fill:#01909E;">
	<!ENTITY st13 "clip-path:url(#SVGID_26_);fill:#FFFFFF;">
	<!ENTITY st14 "clip-path:url(#SVGID_14_);">
	<!ENTITY st15 "clip-path:url(#SVGID_18_);">
	<!ENTITY st16 "clip-path:url(#SVGID_28_);fill-rule:evenodd;clip-rule:evenodd;fill:#01909E;">
]>
<svg version="1.1" id="Layer_1" xmlns="http://www.w3.org/2000/svg" xmlns:xlink="http://www.w3.org/1999/xlink" x="0px" y="0px"
	 width="397.795px" height="397.769px" viewBox="0 0 397.795 397.769" style="enable-background:new 0 0 397.795 397.769;"
	 xml:space="preserve">
<g>
	<defs>
		<rect id="SVGID_21_" x="0.006" y="0.001" width="397.789" height="397.768"/>
	</defs>
	<clipPath id="SVGID_2_">
		<use xlink:href="#SVGID_21_"  style="overflow:visible;"/>
	</clipPath>
	<path style="clip-path:url(#SVGID_2_);fill:#518E9B;" d="M397.779,198.88c0,109.842-89.037,198.889-198.885,198.889
		S0,308.722,0,198.88C0,89.042,89.047,0.001,198.895,0.001S397.779,89.042,397.779,198.88"/>
	<path style="clip-path:url(#SVGID_2_);fill:#FFFFFF;" d="M267.078,144.897c0,37.666-30.528,68.184-68.184,68.184
		c-37.665,0-68.193-30.518-68.193-68.184c0-37.664,30.528-68.184,68.193-68.184C236.55,76.714,267.078,107.233,267.078,144.897"/>
	<path style="clip-path:url(#SVGID_2_);fill:#FFFFFF;" d="M263.764,223.979c-17.652,14.492-40.245,23.199-64.869,23.199
		c-24.623,0-47.227-8.707-64.868-23.199c-29.109,10.049-55.173,26.602-76.378,48.01c26.52,51.039,79.858,86.006,141.246,86.006
		c61.389,0,114.728-34.967,141.246-86.006C318.936,250.581,292.862,234.028,263.764,223.979"/>
</g>
</svg>
