<?xml version="1.0" encoding="utf-8"?>
<!-- Generator: Adobe Illustrator 16.0.0, SVG Export Plug-In . SVG Version: 6.00 Build 0)  -->
<!DOCTYPE svg PUBLIC "-//W3C//DTD SVG 1.1//EN" "http://www.w3.org/Graphics/SVG/1.1/DTD/svg11.dtd" [
	<!ENTITY st0 "opacity:0.25;">
	<!ENTITY st1 "clip-path:url(#SVGID_22_);fill:#518E9B;">
	<!ENTITY st2 "fill:#518E9B;">
	<!ENTITY st3 "clip-path:url(#SVGID_30_);fill:#FFFFFF;">
	<!ENTITY st4 "clip-path:url(#SVGID_24_);fill:#518E9B;">
	<!ENTITY st5 "clip-path:url(#SVGID_2_);">
	<!ENTITY st6 "clip-path:url(#SVGID_6_);">
	<!ENTITY st7 "clip-path:url(#SVGID_26_);fill:#518E9B;">
	<!ENTITY st8 "clip-path:url(#SVGID_22_);fill:#FFFFFF;">
	<!ENTITY st9 "fill:#FFFFFF;">
	<!ENTITY st10 "clip-path:url(#SVGID_12_);fill:#FFFFFF;">
	<!ENTITY st11 "clip-path:url(#SVGID_24_);fill:#FFFFFF;">
	<!ENTITY st12 "clip-path:url(#SVGID_10_);fill-rule:evenodd;clip-rule:evenodd;fill:#01909E;">
	<!ENTITY st13 "clip-path:url(#SVGID_26_);fill:#FFFFFF;">
	<!ENTITY st14 "clip-path:url(#SVGID_14_);">
	<!ENTITY st15 "clip-path:url(#SVGID_18_);">
	<!ENTITY st16 "clip-path:url(#SVGID_28_);fill-rule:evenodd;clip-rule:evenodd;fill:#01909E;">
]>
<svg version="1.1" id="Layer_1" xmlns="http://www.w3.org/2000/svg" xmlns:xlink="http://www.w3.org/1999/xlink" x="0px" y="0px"
	 width="1344.013px" height="755.867px" viewBox="0 0 1344.013 755.867" style="enable-background:new 0 0 1344.013 755.867;"
	 xml:space="preserve">
<g>
	<g>
		<path d="M114.171,19.061h68.563l-2.275,10.609h-5.427c-5.978,0-10.121,0.543-12.436,1.627c-2.315,1.093-4.247,2.991-5.811,5.719
			c-1.557,2.714-3.13,7.93-4.73,15.641l-27.333,120.268c-0.759,2.739-1.137,4.369-1.137,4.877c0,1.371,0.591,2.4,1.773,3.085
			c1.184,0.685,3.675,1.033,7.474,1.033h10.777c11.739,0,21.859-1.583,30.354-4.735c8.485-3.16,15.86-7.681,22.113-13.573
			c6.252-5.89,13.011-15.357,20.278-28.4l10.98,4.793l-26.887,55.165H74.189l2.267-10.597h5.431c5.72,0,9.596-0.463,11.614-1.396
			c2.607-1.257,4.732-3.084,6.377-5.492c1.639-2.396,3.176-6.621,4.604-12.682l26.221-115.389c0.932-4.063,1.396-7.584,1.396-10.546
			c0-2.202-0.481-4.001-1.45-5.392c-0.969-1.403-2.336-2.421-4.104-3.056c-1.77-0.639-5.01-0.95-9.72-0.95h-5.053L114.171,19.061z"
			/>
		<path d="M357.259,73.347h16.079l-19.568,95.097c-0.693,3.307-1.042,6.147-1.042,8.519c0,2.551,0.62,4.566,1.871,6.029
			c1.244,1.475,2.804,2.21,4.669,2.21c2.285,0,4.57-0.929,6.855-2.777c3.465-2.692,7.444-7.193,11.944-13.509l7.957,7.071
			c-7.379,8.5-12.548,13.715-15.512,15.653c-5.629,3.785-11.528,5.681-17.685,5.681c-4.179,0-7.738-0.846-10.663-2.521
			c-2.931-1.689-5.25-4.173-6.958-7.455c-1.713-3.281-2.565-6.69-2.565-10.224c0-2.694,0.763-7.828,2.29-15.409
			c-6.635,9.518-12.893,16.8-18.769,21.852c-5.879,5.046-11.882,8.748-18.013,11.104c-6.132,2.354-12.341,3.535-18.64,3.535
			c-10.999,0-19.814-3.786-26.445-11.363c-7.476-8.417-11.214-19.4-11.214-32.953c0-14.807,3.45-28.846,10.356-42.1
			c6.906-13.249,15.955-23.477,27.159-30.675c11.206-7.198,22.801-10.795,34.79-10.795c7.689,0,14.69,1.345,21.021,4.038
			c6.323,2.694,11.969,6.782,16.926,12.244L357.259,73.347z M348.21,96.829c-4.286-4.295-9.173-7.618-14.659-9.972
			c-5.483-2.353-10.822-3.539-16.02-3.539c-8.168,0-16.145,2.846-23.938,8.522c-7.793,5.683-14.514,14.796-20.163,27.33
			c-5.65,12.543-8.478,25.212-8.478,38.004c0,5.728,0.907,10.674,2.725,14.829c1.819,4.168,4.284,7.303,7.42,9.408
			c3.134,2.109,6.516,3.16,10.145,3.16c6.764,0,13.898-2.787,21.4-8.333c9.485-6.904,17.983-17.358,25.488-31.368
			C339.634,130.852,344.997,114.843,348.21,96.829"/>
		<path d="M464.786,118.851l22.345,7.716c2.354,0.844,6.481,2.681,12.371,5.496c5.896,2.819,10.062,5.328,12.505,7.518
			c3.115,2.786,5.576,6.108,7.383,9.984c1.818,3.869,2.721,7.79,2.721,11.752c0,6.148-2.084,12.123-6.248,17.935
			c-4.166,5.813-10.275,10.426-18.309,13.829c-8.038,3.412-17.949,5.123-29.725,5.123c-12.798,0-24.286-1.875-34.465-5.623
			c-10.187-3.739-17.597-8.245-22.221-13.506c-4.631-5.26-6.946-10.039-6.946-14.329c0-2.856,0.985-5.26,2.964-7.198
			c1.976-1.929,4.483-2.898,7.514-2.898c1.852,0,3.56,0.341,5.112,1.008c1.559,0.674,3.136,1.858,4.737,3.535
			c1.093,1.185,2.857,3.874,5.301,8.079c2.186,3.703,3.614,5.935,4.295,6.693c1.938,2.274,4.545,4.459,7.822,6.561
			c3.287,2.105,6.967,3.686,11.045,4.735c4.084,1.056,8.855,1.58,14.328,1.58c7.91,0,14.502-0.992,19.761-2.966
			c5.261-1.988,9.173-4.623,11.739-7.904c2.566-3.282,3.85-6.614,3.85-9.993c0-4.715-2.354-8.972-7.069-12.762
			c-4.717-3.705-11.57-6.907-20.581-9.606c-0.753-0.251-1.553-0.54-2.397-0.881l-17.667-6.193
			c-10.775-3.792-18.523-8.46-23.232-14.011c-4.796-5.462-7.193-11.48-7.193-18.031c0-5.714,1.932-11.27,5.805-16.648
			c3.868-5.378,9.572-9.647,17.104-12.8c7.536-3.146,16.854-4.727,27.964-4.727c17.001,0,30.974,3.408,41.915,10.229
			c8.163,5.125,12.244,10.938,12.244,17.417c0,2.861-0.966,5.303-2.906,7.324c-1.932,2.021-4.328,3.029-7.189,3.029
			c-2.699,0-5.264-0.971-7.703-2.916c-1.687-1.356-4.164-4.354-7.447-9.01c-3.371-4.819-7.471-8.413-12.307-10.778
			c-4.841-2.365-10.797-3.554-17.867-3.554c-9.596,0-17.022,1.856-22.283,5.563c-5.259,3.705-7.888,7.887-7.888,12.521
			c0,3.707,1.429,7.056,4.286,10.052C451.113,113.191,456.627,116.078,464.786,118.851"/>
		<path d="M114.192,244.601h74.182c14.543,0,25.563,1.665,33.051,4.984c7.481,3.333,13.348,8.258,17.598,14.771
			c4.242,6.529,6.373,14.126,6.373,22.795c0,10.942-3.197,21.187-9.587,30.733c-6.394,9.557-15.099,16.729-26.11,21.527
			c-9.668,4.128-25.305,6.181-46.918,6.181h-25.856l-10.895,47.551c-0.844,3.399-1.267,6.119-1.267,8.132
			c0,1.856,0.549,3.496,1.645,4.882c1.094,1.396,2.521,2.4,4.291,3.025c1.767,0.617,5.047,0.929,9.844,0.929h4.803l-2.275,10.602
			H74.045l2.392-10.602h5.431c7.156,0,12.182-1.218,15.086-3.663c2.909-2.438,5.193-7.367,6.885-14.774l26.511-116.65
			c1.093-4.739,1.639-7.915,1.639-9.529c0-2.538-0.628-4.673-1.894-6.412c-1.26-1.735-2.819-2.857-4.668-3.366
			c-1.434-0.34-6.063-0.508-13.891-0.508L114.192,244.601z M156.824,258.738l-16.893,73.733h19.265
			c15.447,0,25.941-0.887,31.484-2.655c8.394-2.525,15.446-7.661,21.156-15.401c5.705-7.744,8.559-16.577,8.559-26.51
			c0-7.235-1.82-13.217-5.473-17.927c-3.65-4.71-8.413-7.912-14.29-9.598c-3.859-1.087-11.286-1.643-22.277-1.643H156.824z"/>
		<path d="M300.566,295.855l-9.32,39.621c4.866-9.086,10.178-16.611,15.931-22.587c5.748-5.97,11.646-10.509,17.691-13.623
			c4.364-2.272,8.774-3.411,13.225-3.411c4.443,0,8.076,1.276,10.885,3.836c2.81,2.556,4.221,5.673,4.221,9.358
			c0,3.185-1.156,6.012-3.473,8.482c-2.309,2.468-4.779,3.699-7.379,3.699c-1.773,0-4.254-0.563-7.447-1.706
			c-3.284-1.219-5.896-1.829-7.831-1.829c-7.065,0-14.514,5.22-22.343,15.646c-10.688,14.136-19.396,35.666-26.13,64.598
			l-5.37,22.774h-20.582l23.611-103.898h-23.611l2.54-10.355c7.852-1.008,14.449-2.284,19.774-3.849
			c5.325-1.554,10.775-3.798,16.353-6.756H300.566z"/>
		<path d="M465.043,387.384l7.07,8.079c-10.602,9.384-21.629,16.447-33.071,21.175c-11.451,4.735-22.644,7.105-33.585,7.105
			c-14.729,0-26.596-4.521-35.602-13.572c-9.006-9.043-13.506-21.061-13.506-36.041c0-13.384,3.726-26.111,11.173-38.188
			c7.448-12.076,17.84-21.779,31.184-29.107c13.335-7.319,27.62-10.979,42.856-10.979c12.121,0,21.588,2.781,28.404,8.336
			c6.815,5.551,10.224,12.119,10.224,19.695c0,4.459-1.488,9.152-4.479,14.073c-2.985,4.924-8.012,9.492-15.086,13.697
			c-7.065,4.207-17.297,7.698-30.675,10.478c-13.379,2.781-29.837,4.671-49.364,5.684c-0.422,3.282-0.632,5.767-0.632,7.447
			c0,6.65,1.416,12.577,4.229,17.795c2.824,5.223,6.82,9.371,11.992,12.438c5.182,3.075,10.586,4.613,16.227,4.613
			c7.152,0,15.508-1.937,25.055-5.811C447.011,400.43,456.208,394.792,465.043,387.384 M382.102,357.842
			c19.104-2.109,32.946-4.176,41.535-6.201c13.805-3.281,23.227-7.277,28.28-11.96c5.042-4.685,7.571-9.803,7.571-15.374
			c0-4.728-1.872-8.691-5.619-11.901c-3.742-3.205-9.066-4.807-15.969-4.807c-7.24,0-14.893,2.152-22.977,6.454
			c-8.076,4.303-14.939,10.164-20.578,17.589C388.711,339.072,384.631,347.805,382.102,357.842"/>
		<path d="M553.411,295.855l-9.04,39.696c4.023-6.908,7.927-12.384,11.709-16.439c7.146-7.831,14.452-13.665,21.931-17.5
			c7.476-3.833,14.703-5.757,21.688-5.757c5.508,0,10.309,1.122,14.414,3.361c4.109,2.227,7.398,5.407,9.858,9.534
			c2.472,4.123,3.7,8.286,3.7,12.493c0,3.601-0.773,8.761-2.328,15.479l-12.404,53.744c-1.359,5.867-2.036,9.796-2.036,11.767
			c0,2.277,0.784,4.138,2.359,5.588c1.573,1.438,3.507,2.165,5.812,2.165c5.947,0,13.606-5.598,22.966-16.792l7.95,7.449
			c-7.412,8.582-13.881,14.436-19.4,17.544c-5.521,3.115-11.27,4.67-17.252,4.67c-4.546,0-8.483-0.878-11.809-2.652
			c-3.331-1.765-5.97-4.307-7.906-7.639c-1.936-3.316-2.904-6.837-2.904-10.544c0-3.277,0.59-7.525,1.781-12.753l12.707-55.908
			c1.093-4.803,1.639-8.513,1.639-11.118c0-3.707-1.17-6.628-3.514-8.775c-2.346-2.146-5.449-3.222-9.309-3.222
			c-4.445,0-9.109,1.224-13.997,3.668c-4.897,2.442-10.095,6.483-15.603,12.124c-5.509,5.639-10.542,12.627-15.107,20.963
			c-4.558,8.338-8.73,18.275-12.516,29.811c-1.869,5.298-3.957,13.248-6.254,23.837l-4.346,20.064h-20.843l23.646-104.021h-23.646
			l2.546-10.351c8.134-1.189,14.493-2.448,19.066-3.794c4.578-1.345,10.38-3.576,17.414-6.693H553.411z"/>
		<path d="M817.836,235.513L782.02,391.005c-1.49,6.182-2.229,10.193-2.229,12.064c0,2.098,0.763,3.857,2.29,5.277
			c1.527,1.426,3.434,2.14,5.717,2.14c1.954,0,3.838-0.354,5.664-1.072c1.82-0.709,3.963-2.038,6.419-3.976
			c1.021-0.928,4.709-4.588,11.063-10.979l7.826,6.933c-6.408,6.992-11.183,11.645-14.341,13.959
			c-3.153,2.315-6.733,4.145-10.735,5.483c-4.001,1.349-7.982,2.022-11.941,2.022c-4.38,0-8.215-0.883-11.496-2.652
			c-3.288-1.765-5.879-4.294-7.768-7.576c-1.897-3.282-2.845-6.731-2.845-10.351c0-2.949,0.926-8.168,2.779-15.668
			c-6.394,9.51-12.556,16.857-18.484,22.04c-5.929,5.176-12.03,8.987-18.292,11.429c-6.273,2.44-12.732,3.664-19.375,3.664
			c-8.158,0-14.937-1.664-20.32-4.988c-5.387-3.319-9.817-8.479-13.311-15.464c-3.49-6.987-5.238-15.026-5.238-24.11
			c0-14.563,3.611-28.452,10.835-41.664c7.233-13.21,16.614-23.459,28.146-30.742c11.537-7.282,23.596-10.92,36.191-10.92
			c7.354,0,14.092,1.18,20.219,3.533c6.128,2.354,11.852,6.051,17.182,11.09l12.72-53.753h-28.657l2.663-10.606
			c6.631-0.584,13.8-1.911,21.507-3.979c7.707-2.06,13.936-4.265,18.701-6.627H817.836z M777.458,322.118
			c-4.315-4.123-9.436-7.367-15.356-9.72c-5.925-2.361-11.598-3.538-17.01-3.538c-8.463,0-16.777,2.924-24.943,8.773
			c-8.167,5.854-15.146,14.896-20.947,27.137c-5.797,12.254-8.692,24.985-8.692,38.192c0,8.418,2.032,15.049,6.089,19.889
			c4.062,4.842,9.058,7.261,14.979,7.261c7.112,0,14.303-2.525,21.584-7.579c10.15-6.984,18.722-16.43,25.701-28.331
			C765.84,362.281,772.042,344.931,777.458,322.118"/>
		<path d="M951.972,298.885h16.083l-19.574,95.101c-0.692,3.307-1.035,6.143-1.035,8.512c0,2.556,0.613,4.573,1.861,6.034
			c1.244,1.476,2.807,2.207,4.673,2.207c2.286,0,4.574-0.921,6.86-2.777c3.461-2.697,7.443-7.198,11.943-13.506l7.953,7.067
			c-7.379,8.506-12.547,13.72-15.508,15.652c-5.633,3.792-11.533,5.678-17.688,5.678c-4.179,0-7.737-0.841-10.667-2.521
			c-2.927-1.682-5.246-4.165-6.954-7.446c-1.713-3.282-2.569-6.69-2.569-10.229c0-2.688,0.762-7.824,2.289-15.4
			c-6.625,9.513-12.887,16.791-18.764,21.839c-5.874,5.051-11.881,8.753-18.012,11.109c-6.133,2.361-12.346,3.538-18.641,3.538
			c-10.999,0-19.814-3.789-26.441-11.363c-7.479-8.415-11.217-19.4-11.217-32.951c0-14.812,3.449-28.843,10.355-42.102
			c6.906-13.257,15.955-23.476,27.16-30.679c11.2-7.198,22.8-10.794,34.784-10.794c7.694,0,14.698,1.354,21.03,4.043
			c6.318,2.692,11.964,6.772,16.926,12.239L951.972,298.885z M942.922,322.366c-4.285-4.291-9.174-7.61-14.654-9.968
			c-5.488-2.361-10.822-3.538-16.024-3.538c-8.163,0-16.145,2.84-23.938,8.525c-7.793,5.678-14.51,14.787-20.163,27.33
			c-5.65,12.54-8.479,25.204-8.479,38.004c0,5.718,0.908,10.661,2.727,14.824c1.818,4.168,4.287,7.304,7.42,9.408
			c3.133,2.11,6.511,3.16,10.148,3.16c6.758,0,13.895-2.782,21.396-8.336c9.484-6.904,17.982-17.359,25.487-31.368
			C934.346,356.389,939.704,340.38,942.922,322.366"/>
		<path d="M1059.499,344.396l22.344,7.711c2.355,0.849,6.481,2.681,12.371,5.501c5.896,2.819,10.063,5.328,12.506,7.518
			c3.115,2.776,5.575,6.101,7.387,9.976c1.811,3.878,2.717,7.795,2.717,11.753c0,6.148-2.084,12.131-6.248,17.935
			c-4.167,5.815-10.273,10.429-18.31,13.837c-8.034,3.412-17.948,5.118-29.726,5.118c-12.797,0-24.285-1.878-34.471-5.623
			c-10.184-3.734-17.59-8.243-22.215-13.505c-4.63-5.261-6.945-10.038-6.945-14.328c0-2.858,0.989-5.262,2.969-7.195
			c1.975-1.936,4.479-2.906,7.51-2.906c1.846,0,3.559,0.331,5.115,1.008c1.553,0.677,3.133,1.854,4.729,3.538
			c1.097,1.182,2.866,3.874,5.306,8.081c2.189,3.706,3.617,5.933,4.294,6.688c1.933,2.274,4.54,4.464,7.821,6.568
			c3.289,2.105,6.967,3.676,11.051,4.736c4.079,1.05,8.852,1.574,14.328,1.574c7.908,0,14.493-0.99,19.76-2.971
			c5.253-1.979,9.17-4.613,11.738-7.899c2.563-3.29,3.852-6.614,3.852-9.983c0-4.72-2.363-8.977-7.07-12.774
			c-4.717-3.697-11.574-6.904-20.585-9.594c-0.748-0.251-1.553-0.55-2.394-0.891l-17.676-6.193
			c-10.773-3.786-18.515-8.459-23.227-14.011c-4.797-5.467-7.198-11.476-7.198-18.029c0-5.711,1.935-11.262,5.813-16.648
			c3.863-5.379,9.568-9.645,17.098-12.797c7.535-3.15,16.859-4.734,27.965-4.734c17.006,0,30.978,3.411,41.916,10.227
			c8.166,5.135,12.251,10.942,12.251,17.427c0,2.861-0.973,5.3-2.909,7.315c-1.936,2.03-4.334,3.038-7.195,3.038
			c-2.697,0-5.262-0.979-7.697-2.921c-1.691-1.352-4.174-4.357-7.453-9.008c-3.369-4.82-7.469-8.418-12.305-10.783
			c-4.842-2.366-10.803-3.551-17.867-3.551c-9.596,0-17.023,1.858-22.279,5.563c-5.264,3.71-7.892,7.883-7.892,12.522
			c0,3.702,1.433,7.06,4.29,10.051C1045.829,338.733,1051.34,341.61,1059.499,344.396"/>
		<g>
			<defs>
				<rect id="SVGID_27_" x="1189.334" y="446.952" width="145.852" height="288.732"/>
			</defs>
			<clipPath id="SVGID_2_">
				<use xlink:href="#SVGID_27_"  style="overflow:visible;"/>
			</clipPath>
			<path style="clip-path:url(#SVGID_2_);fill-rule:evenodd;clip-rule:evenodd;fill:#01909E;" d="M1316.69,725.426
				c-0.77-5.496-3.734-8.496-7.373-11.168c-31.439-23.059-62.844-46.148-94.27-69.216c-2.9-2.132-5.724-4.392-8.771-6.282
				c-5.111-3.198-11.32-2.16-14.552,2.164c-3.588,4.811-3.029,10.613,1.467,14.988c0.633,0.622,1.34,1.198,2.063,1.727
				c33.817,24.875,67.633,49.756,101.471,74.598c5.555,4.082,10.941,4.67,14.76,1.061
				C1313.714,731.199,1314.987,728.09,1316.69,725.426"/>
			<path style="clip-path:url(#SVGID_2_);fill-rule:evenodd;clip-rule:evenodd;fill:#01909E;" d="M1200.689,546.804
				c2.5-1.234,5.254-2.133,7.452-3.777c33.782-25.174,67.497-50.438,101.222-75.69c4.283-3.207,6.787-7.216,5.367-12.779
				c-1.111-4.366-4.145-7.589-8.398-7.605c-3.568-0.021-7.738,1.323-10.625,3.445c-22.738,16.661-45.225,33.655-67.783,50.55
				c-11.283,8.452-22.599,16.852-33.821,25.377c-4.381,3.319-5.783,8.193-4.038,12.707
				C1191.886,543.721,1195.629,546.326,1200.689,546.804"/>
			<path style="clip-path:url(#SVGID_2_);fill-rule:evenodd;clip-rule:evenodd;fill:#01909E;" d="M1271.69,602.339
				c17.102,0,34.195-0.004,51.295,0.005c4.914,0.003,8.895-1.766,11.008-6.337c1.832-3.967,1.725-8.367-1.559-11.229
				c-2.486-2.173-6.238-4.051-9.439-4.076c-34.346-0.286-68.705-0.222-103.055-0.139c-7.143,0.017-11.782,4.547-11.778,10.883
				c0.004,6.393,4.562,10.801,11.774,10.851C1237.183,602.419,1254.435,602.339,1271.69,602.339"/>
		</g>
		<path d="M576.821,580.543c-3.284,0-6.803,0.761-10.543,2.273c-3.746,1.517-7.761,3.79-12.056,6.815v38.378
			c0,7.743,0.607,13.067,1.828,15.972c1.223,2.898,3.366,5.324,6.441,7.261c3.071,1.929,6.671,2.903,10.794,2.903
			c6.981,0,12.54-2.861,16.663-8.584c5.216-7.156,7.827-17.044,7.827-29.672c0-11.861-2.229-21.039-6.691-27.519
			C587.467,583.154,582.711,580.543,576.821,580.543"/>
		<path d="M801.778,635.141c-1.938,2.486-2.904,5.038-2.904,7.639c0,3.369,1.261,6.19,3.782,8.463
			c2.53,2.278,5.938,3.408,10.232,3.408c2.78,0,5.998-0.714,9.661-2.147c3.654-1.428,7.76-3.533,12.301-6.313v-22.09
			c-11.02,1.593-18.813,3.215-23.357,4.857C806.951,630.598,803.715,632.661,801.778,635.141"/>
		<path d="M393.269,635.141c-1.94,2.486-2.906,5.038-2.906,7.639c0,3.369,1.262,6.19,3.788,8.463
			c2.525,2.278,5.93,3.408,10.229,3.408c2.775,0,5.994-0.714,9.654-2.147c3.662-1.428,7.764-3.533,12.312-6.313v-22.09
			c-11.028,1.593-18.813,3.215-23.357,4.857C398.446,630.598,395.2,632.661,393.269,635.141"/>
		<path d="M60.952,715.777h1084.121V460.965H60.952V715.777z M325.981,527.774h-7.189c-4.884,0-8.125,0.398-9.726,1.202
			c-1.601,0.799-2.714,1.979-3.342,3.529c-0.634,1.563-0.948,5.244-0.948,11.052v95.437c0,5.892,0.396,9.703,1.202,11.426
			c0.796,1.727,2.013,2.95,3.662,3.659c1.639,0.72,5.403,1.08,11.295,1.08h5.046v24.357H239.76v-24.357h5.678
			c5.304,0,8.905-0.429,10.798-1.269c1.89-0.841,3.196-2.056,3.91-3.664c0.714-1.592,1.076-5.341,1.076-11.232v-37.234h-64.134
			v37.234c0,5.892,0.254,9.557,0.752,10.989c0.84,2.096,2.135,3.486,3.895,4.163c1.756,0.677,5.31,1.013,10.668,1.013h5.895v24.357
			h-85.967v-24.357h5.838c4.91,0,8.34-0.429,10.289-1.269c1.943-0.841,3.277-2.017,3.996-3.529c0.719-1.518,1.08-4.846,1.08-9.977
			v-95.693c0-5.979-0.361-9.87-1.08-11.677c-0.719-1.812-1.841-3.135-3.363-3.98c-1.52-0.836-4.488-1.26-8.888-1.26h-7.872v-24.358
			h85.967v24.358h-7.906c-4.348,0-7.317,0.44-8.906,1.329c-1.596,0.876-2.723,2.138-3.391,3.785
			c-0.67,1.639-1.006,5.197-1.006,10.669v30.674h64.134v-32.943c0-4.043-0.253-6.778-0.761-8.211
			c-0.677-2.021-1.807-3.411-3.408-4.163c-1.602-0.762-5.133-1.14-10.602-1.14h-6.691v-24.358h86.221V527.774z M485.805,678.133
			c-7.157,2.268-14.017,3.402-20.582,3.402c-7.74,0-14.351-1.256-19.819-3.785c-5.474-2.527-10.056-6.309-13.755-11.359
			c-8.421,5.471-16.057,9.363-22.918,11.68c-6.86,2.309-13.491,3.465-19.885,3.465c-12.034,0-21.756-3.383-29.155-10.156
			c-7.407-6.777-11.114-15.127-11.114-25.061c0-5.639,1.281-10.816,3.851-15.523c2.567-4.718,6.397-8.84,11.489-12.379
			c5.09-3.528,12.961-6.668,23.608-9.402c10.646-2.732,23.584-4.69,38.816-5.875V593.8c0-5.551-0.46-9.378-1.39-11.488
			c-0.924-2.1-2.605-3.849-5.046-5.239c-2.445-1.392-5.474-2.08-9.093-2.08c-2.775,0-5.306,0.462-7.572,1.383
			c-2.27,0.933-4.088,2.112-5.432,3.546c-1.343,1.429-2.898,4.202-4.668,8.328c-2.275,5.215-4.988,8.959-8.142,11.229
			c-3.162,2.281-6.881,3.412-11.169,3.412c-5.394,0-9.813-1.686-13.262-5.047c-3.451-3.366-5.178-7.539-5.178-12.498
			c0-5.646,1.774-10.646,5.302-15.025c4.716-5.808,11.737-10.564,21.088-14.262c9.343-3.706,19.863-5.56,31.558-5.56
			c11.701,0,21.652,1.892,29.861,5.678c8.203,3.79,13.926,8.323,17.162,13.576c3.244,5.257,4.861,13.278,4.861,24.048v45.193
			c0,5.561,0.296,9.11,0.887,10.674c0.59,1.555,1.855,2.92,3.786,4.098c1.937,1.18,4.084,1.769,6.437,1.769
			c2.357,0,5.514-0.669,9.473-2.018V678.133z M624.585,663.924c-10.908,12.422-24.113,18.625-39.616,18.625
			c-6.318,0-12.385-1.051-18.197-3.152c-5.814-2.105-11.877-5.596-18.197-10.484l-6.819,10.604H513.95V529.287h-18.43v-24.368
			c16.612-1.185,32.049-4.765,46.304-10.728h12.396v68.045c6.987-4.371,13.196-7.418,18.624-9.152
			c5.424-1.724,10.873-2.585,16.35-2.585c14.309,0,26.133,5.218,35.474,15.653c10.856,12.117,16.281,28.278,16.281,48.475
			C640.949,635.082,635.499,651.516,624.585,663.924 M741.186,679.516h-78.141v-24.357h4.792c5.048,0,8.289-0.319,9.722-0.948
			c1.429-0.635,2.477-1.645,3.153-3.035c0.677-1.387,1.007-4.479,1.007-9.278v-112.61h-18.674v-24.368
			c15.056-1.013,30.629-4.592,46.703-10.728h12.248v147.706c0,4.972,0.209,7.912,0.631,8.843c0.585,1.68,1.889,2.898,3.91,3.654
			c1.266,0.506,4.673,0.765,10.229,0.765h4.42V679.516z M894.313,678.133c-7.156,2.268-14.012,3.402-20.582,3.402
			c-7.735,0-14.345-1.256-19.822-3.785c-5.469-2.527-10.051-6.309-13.752-11.359c-8.416,5.471-16.061,9.363-22.918,11.68
			c-6.859,2.309-13.49,3.465-19.879,3.465c-12.039,0-21.761-3.383-29.165-10.156c-7.406-6.777-11.11-15.127-11.11-25.061
			c0-5.639,1.286-10.816,3.852-15.523c2.564-4.718,6.393-8.84,11.488-12.379c5.095-3.528,12.961-6.668,23.605-9.402
			c10.646-2.732,23.59-4.69,38.82-5.875V593.8c0-5.551-0.465-9.378-1.389-11.488c-0.925-2.1-2.607-3.849-5.047-5.239
			c-2.449-1.392-5.469-2.08-9.093-2.08c-2.772,0-5.302,0.462-7.573,1.383c-2.269,0.933-4.084,2.112-5.43,3.546
			c-1.348,1.429-2.9,4.202-4.67,8.328c-2.27,5.215-4.992,8.959-8.141,11.229c-3.158,2.281-6.879,3.412-11.174,3.412
			c-5.383,0-9.808-1.686-13.258-5.047c-3.451-3.366-5.172-7.539-5.172-12.498c0-5.646,1.765-10.646,5.301-15.025
			c4.713-5.808,11.738-10.564,21.079-14.262c9.342-3.706,19.868-5.56,31.563-5.56c11.7,0,21.648,1.892,29.856,5.678
			c8.207,3.79,13.931,8.323,17.17,13.576c3.236,5.257,4.857,13.278,4.857,24.048v45.193c0,5.561,0.297,9.11,0.888,10.674
			c0.586,1.555,1.851,2.92,3.786,4.098c1.937,1.18,4.084,1.769,6.437,1.769c2.358,0,5.514-0.669,9.472-2.018V678.133z
			 M1073.701,679.516h-74.108v-24.357c5.637-0.087,8.794-0.214,9.471-0.382c2.103-0.589,3.494-1.551,4.164-2.9
			c0.677-1.344,1.013-4.242,1.013-8.698v-46.251c0-5.959-0.632-9.825-1.896-11.59c-2.021-2.94-5.219-4.411-9.6-4.411
			c-3.617,0-7.48,0.799-11.607,2.399c-4.127,1.592-9.678,4.869-16.67,9.82v50.032c0,5.464,0.599,8.825,1.791,10.09
			c1.187,1.256,4.027,1.891,8.531,1.891h4.076v24.357h-73.354v-24.357h3.667c5.809,0,9.401-0.259,10.796-0.757
			c1.381-0.503,2.436-1.391,3.154-2.65c0.715-1.261,1.072-3.736,1.072-7.438v-58.719h-18.689V561.23
			c15.117-1.873,29.27-5.445,42.453-10.731h11.707v16.788c9.512-6.477,17.655-10.9,24.43-13.254
			c6.771-2.353,13.699-3.534,20.77-3.534c8.162,0,15.379,1.728,21.647,5.178c6.27,3.449,10.835,7.766,13.696,12.934
			c2.862,5.181,4.299,12.526,4.299,22.03v52.518c0,4.462,0.309,7.32,0.941,8.59c0.633,1.256,1.622,2.189,2.969,2.776
			c1.013,0.421,4.036,0.635,9.088,0.635h6.188V679.516z"/>
		<g>
			<defs>
				<rect id="SVGID_29_" x="132.331" y="494.191" width="941.373" height="188.358"/>
			</defs>
			<clipPath id="SVGID_4_">
				<use xlink:href="#SVGID_29_"  style="overflow:visible;"/>
			</clipPath>
			<path style="clip-path:url(#SVGID_4_);fill:#FFFFFF;" d="M239.76,527.774h6.691c5.469,0,9,0.378,10.606,1.14
				c1.597,0.752,2.727,2.143,3.403,4.163c0.508,1.433,0.761,4.165,0.761,8.211v32.943h-64.134v-30.674
				c0-5.475,0.336-9.03,1.006-10.669c0.668-1.647,1.795-2.909,3.391-3.785c1.589-0.889,4.559-1.329,8.906-1.329h7.906v-24.358
				h-85.967v24.358h7.872c4.399,0,7.368,0.424,8.888,1.26c1.522,0.846,2.645,2.169,3.363,3.98c0.719,1.807,1.08,5.698,1.08,11.677
				v95.693c0,5.131-0.361,8.459-1.08,9.977c-0.719,1.513-2.053,2.688-3.996,3.529c-1.949,0.84-5.379,1.266-10.289,1.266h-5.838
				v24.36h85.967v-24.36h-5.895c-5.358,0-8.912-0.333-10.668-1.01c-1.76-0.677-3.055-2.067-3.895-4.163
				c-0.498-1.433-0.752-5.098-0.752-10.989v-37.234h64.134v37.234c0,5.892-0.362,9.641-1.076,11.232
				c-0.714,1.608-2.017,2.823-3.91,3.664c-1.893,0.84-5.494,1.266-10.798,1.266h-5.678v24.36h86.227v-24.36h-5.052
				c-5.892,0-9.656-0.357-11.295-1.077c-1.649-0.709-2.866-1.933-3.662-3.659c-0.806-1.723-1.202-5.534-1.202-11.426v-95.437
				c0-5.808,0.314-9.488,0.948-11.052c0.632-1.551,1.741-2.73,3.342-3.529c1.601-0.804,4.842-1.202,9.726-1.202h7.195v-24.358
				H239.76V527.774z"/>
			<path style="clip-path:url(#SVGID_4_);fill:#FFFFFF;" d="M469.897,653.765c-1.937-1.178-3.201-2.543-3.785-4.103
				c-0.59-1.559-0.887-5.108-0.887-10.669V593.8c0-10.77-1.618-18.791-4.863-24.048c-3.24-5.257-8.957-9.786-17.164-13.576
				c-8.205-3.786-18.164-5.678-29.857-5.678c-11.701,0-22.221,1.854-31.558,5.56c-9.35,3.697-16.378,8.454-21.088,14.262
				c-3.529,4.379-5.301,9.38-5.301,15.025c0,4.959,1.725,9.132,5.175,12.494c3.451,3.365,7.871,5.051,13.258,5.051
				c4.289,0,8.013-1.131,11.176-3.412c3.153-2.27,5.863-6.014,8.141-11.229c1.768-4.126,3.326-6.902,4.668-8.333
				c1.343-1.433,3.162-2.608,5.426-3.541c2.273-0.921,4.803-1.383,7.578-1.383c3.617,0,6.647,0.688,9.091,2.08
				c2.44,1.391,4.122,3.14,5.049,5.239c0.929,2.11,1.389,5.938,1.389,11.488v9.338c-15.231,1.185-28.17,3.143-38.815,5.875
				c-10.65,2.734-18.525,5.874-23.61,9.402c-5.091,3.539-8.921,7.661-11.49,12.379c-2.567,4.707-3.849,9.885-3.849,15.523
				c0,9.934,3.708,18.284,11.107,25.061c7.406,6.773,17.126,10.156,29.162,10.156c6.395,0,13.025-1.156,19.885-3.465
				c6.857-2.316,14.495-6.209,22.911-11.68c3.7,5.051,8.289,8.832,13.763,11.359c5.469,2.529,12.072,3.785,19.818,3.785
				c6.565,0,13.423-1.135,20.58-3.402v-24.617c-3.959,1.345-7.112,2.018-9.47,2.018C473.98,655.534,471.833,654.945,469.897,653.765
				 M426.343,646.191c-4.544,2.779-8.647,4.885-12.306,6.313c-3.662,1.434-6.881,2.147-9.656,2.147
				c-4.299,0-7.706-1.135-10.231-3.408c-2.525-2.272-3.787-5.094-3.787-8.463c0-2.601,0.963-5.152,2.903-7.639
				c1.938-2.48,5.178-4.543,9.721-6.183c4.545-1.643,12.328-3.265,23.356-4.857V646.191z"/>
			<path style="clip-path:url(#SVGID_4_);fill:#FFFFFF;" d="M589.196,550.499c-5.479,0-10.926,0.861-16.355,2.585
				c-5.422,1.73-11.637,4.777-18.62,9.152v-68.045h-12.4c-14.251,5.963-29.685,9.543-46.298,10.728v24.368h18.428v150.229h27.801
				l6.824-10.604c6.322,4.883,12.383,8.379,18.197,10.484c5.809,2.102,11.881,3.152,18.197,3.152
				c15.503,0,28.711-6.203,39.616-18.625c10.909-12.408,16.366-28.842,16.366-49.297c0-20.196-5.428-36.357-16.288-48.475
				C615.327,555.714,603.499,550.499,589.196,550.499 M589.949,645.562c-4.123,5.723-9.682,8.584-16.666,8.584
				c-4.122,0-7.72-0.975-10.791-2.903c-3.077-1.937-5.222-4.362-6.441-7.261c-1.224-2.904-1.83-8.229-1.83-15.972v-38.378
				c4.294-3.025,8.31-5.299,12.058-6.815c3.744-1.513,7.264-2.273,10.541-2.273c5.892,0,10.646,2.61,14.266,7.828
				c4.461,6.479,6.689,15.657,6.689,27.516C597.774,628.518,595.163,638.406,589.949,645.562"/>
			<path style="clip-path:url(#SVGID_4_);fill:#FFFFFF;" d="M726.541,654.394c-2.021-0.756-3.327-1.975-3.917-3.659
				c-0.416-0.926-0.628-3.866-0.628-8.838V494.191H709.75c-16.076,6.136-31.647,9.715-46.703,10.728v24.368h18.674v112.61
				c0,4.8-0.336,7.892-1.007,9.278c-0.681,1.391-1.726,2.4-3.157,3.035c-1.43,0.635-4.669,0.948-9.718,0.948h-4.792v24.357h78.139
				v-24.357h-4.418C731.208,655.159,727.805,654.9,726.541,654.394"/>
			<path style="clip-path:url(#SVGID_4_);fill:#FFFFFF;" d="M878.409,653.765c-1.941-1.178-3.207-2.543-3.79-4.103
				c-0.591-1.559-0.884-5.108-0.884-10.669V593.8c0-10.77-1.621-18.791-4.861-24.048c-3.242-5.257-8.959-9.786-17.17-13.576
				c-8.203-3.786-18.152-5.678-29.853-5.678c-11.698,0-22.225,1.854-31.562,5.56c-9.342,3.697-16.373,8.454-21.084,14.262
				c-3.539,4.379-5.301,9.38-5.301,15.025c0,4.959,1.725,9.132,5.171,12.494c3.456,3.365,7.874,5.051,13.257,5.051
				c4.295,0,8.021-1.131,11.18-3.412c3.149-2.27,5.864-6.014,8.137-11.229c1.768-4.126,3.326-6.902,4.674-8.333
				c1.342-1.433,3.157-2.608,5.424-3.541c2.273-0.921,4.803-1.383,7.575-1.383c3.622,0,6.647,0.688,9.091,2.08
				c2.439,1.391,4.123,3.14,5.053,5.239c0.925,2.11,1.385,5.938,1.385,11.488v9.338c-15.232,1.185-28.171,3.143-38.816,5.875
				c-10.65,2.734-18.515,5.874-23.609,9.402c-5.09,3.539-8.925,7.661-11.484,12.379c-2.564,4.707-3.855,9.885-3.855,15.523
				c0,9.934,3.704,18.284,11.107,25.061c7.407,6.773,17.133,10.156,29.168,10.156c6.389,0,13.02-1.156,19.883-3.465
				c6.854-2.316,14.496-6.209,22.912-11.68c3.703,5.051,8.289,8.832,13.758,11.359c5.478,2.529,12.081,3.785,19.822,3.785
				c6.566,0,13.42-1.135,20.576-3.402v-24.617c-3.959,1.345-7.107,2.018-9.47,2.018
				C882.491,655.534,880.339,654.945,878.409,653.765 M834.85,646.191c-4.541,2.779-8.644,4.885-12.301,6.313
				c-3.663,1.434-6.881,2.147-9.661,2.147c-4.294,0-7.702-1.135-10.232-3.408c-2.521-2.272-3.782-5.094-3.782-8.463
				c0-2.601,0.967-5.152,2.904-7.639c1.938-2.48,5.173-4.543,9.715-6.183c4.545-1.643,12.333-3.265,23.357-4.857V646.191z"/>
			<path style="clip-path:url(#SVGID_4_);fill:#FFFFFF;" d="M1058.424,654.524c-1.347-0.587-2.336-1.524-2.969-2.781
				c-0.629-1.265-0.943-4.123-0.943-8.585V590.64c0-9.504-1.438-16.85-4.299-22.03c-2.855-5.168-7.425-9.484-13.69-12.934
				c-6.272-3.45-13.49-5.178-21.653-5.178c-7.069,0-13.996,1.182-20.768,3.534c-6.774,2.354-14.92,6.777-24.426,13.254v-16.788
				h-11.713c-13.184,5.286-27.336,8.858-42.447,10.731v24.359H934.2v58.724c0,3.702-0.357,6.178-1.072,7.435
				c-0.719,1.264-1.768,2.146-3.153,2.654c-1.39,0.498-4.987,0.754-10.795,0.754h-3.663v24.36h73.348v-24.36h-4.07
				c-4.511,0-7.349-0.632-8.538-1.888c-1.191-1.265-1.786-4.626-1.786-10.09v-50.032c6.988-4.951,12.539-8.229,16.666-9.825
				c4.126-1.596,7.992-2.395,11.614-2.395c4.38,0,7.576,1.471,9.595,4.411c1.262,1.765,1.893,5.627,1.893,11.59v46.251
				c0,4.456-0.336,7.354-1.006,8.698c-0.677,1.35-2.065,2.312-4.17,2.9c-0.671,0.168-3.828,0.295-9.465,0.379v24.36h74.102v-24.36
				h-6.187C1062.46,655.156,1059.435,654.945,1058.424,654.524"/>
		</g>
	</g>
</g>
</svg>
